<svg xmlns="http://www.w3.org/2000/svg" width="320" height="240" viewBox="0 0 320 240"><title>Мексиканская пицца</title><ellipse cx="160" cy="208" rx="99" ry="12" fill="#4a3b28" opacity=".12"/><ellipse cx="160" cy="158" rx="132" ry="70" fill="#fff5dc" stroke="#dac99e" stroke-width="2"/><ellipse cx="160" cy="158" rx="119" ry="59" fill="none" stroke="#8da07a" stroke-width="2"/><ellipse cx="160" cy="137" rx="109" ry="76" fill="#b78043"/><ellipse cx="160" cy="127" rx="109" ry="76" fill="#efbd72" stroke="#bb8549" stroke-width="2"/><ellipse cx="160" cy="127" rx="95" ry="63" fill="#d85c3f"/><ellipse cx="160" cy="125" rx="86" ry="55" fill="#f7d785"/><ellipse cx="109" cy="94" rx="11" ry="6" fill="#894b3d"/><g fill="#ecc943"><ellipse cx="120" cy="104" rx="4" ry="6"/><ellipse cx="99" cy="107" rx="4" ry="6"/></g><ellipse cx="151" cy="84" rx="11" ry="6" fill="#894b3d"/><g fill="#ecc943"><ellipse cx="162" cy="94" rx="4" ry="6"/><ellipse cx="141" cy="97" rx="4" ry="6"/></g><ellipse cx="197" cy="97" rx="11" ry="6" fill="#894b3d"/><g fill="#ecc943"><ellipse cx="208" cy="107" rx="4" ry="6"/><ellipse cx="187" cy="110" rx="4" ry="6"/></g><ellipse cx="213" cy="132" rx="11" ry="6" fill="#894b3d"/><g fill="#ecc943"><ellipse cx="224" cy="142" rx="4" ry="6"/><ellipse cx="203" cy="145" rx="4" ry="6"/></g><ellipse cx="167" cy="145" rx="11" ry="6" fill="#894b3d"/><g fill="#ecc943"><ellipse cx="178" cy="155" rx="4" ry="6"/><ellipse cx="157" cy="158" rx="4" ry="6"/></g><ellipse cx="111" cy="138" rx="11" ry="6" fill="#894b3d"/><g fill="#ecc943"><ellipse cx="122" cy="148" rx="4" ry="6"/><ellipse cx="101" cy="151" rx="4" ry="6"/></g><ellipse cx="158" cy="113" rx="11" ry="6" fill="#894b3d"/><g fill="#ecc943"><ellipse cx="169" cy="123" rx="4" ry="6"/><ellipse cx="148" cy="126" rx="4" ry="6"/></g></svg>