<svg xmlns="http://www.w3.org/2000/svg" width="320" height="240" viewBox="0 0 320 240"><title>Тирамису</title><ellipse cx="160" cy="208" rx="99" ry="12" fill="#4a3b28" opacity=".12"/><ellipse cx="160" cy="158" rx="132" ry="70" fill="#fff5dc" stroke="#dac99e" stroke-width="2"/><ellipse cx="160" cy="158" rx="119" ry="59" fill="none" stroke="#8da07a" stroke-width="2"/><path d="M77 95L191 63 245 101 133 137Z" fill="#775039"/><path d="M77 95L133 134 245 101v81L133 211 77 175Z" fill="#d7b282"/><path d="M77 109L133 144 245 113v14L133 158 77 123Z" fill="#fff1c9"/><path d="M77 147L133 182 245 151v14L133 196 77 161Z" fill="#fff1c9"/><path d="M77 95L191 63 245 101 133 137Z" fill="#805538"/><circle cx="126" cy="92" r="3" fill="#4d3628"/><circle cx="161" cy="87" r="3" fill="#4d3628"/><circle cx="193" cy="92" r="3" fill="#4d3628"/><circle cx="165" cy="112" r="3" fill="#4d3628"/><circle cx="205" cy="105" r="3" fill="#4d3628"/></svg>