<svg xmlns="http://www.w3.org/2000/svg" width="320" height="240" viewBox="0 0 320 240"><title>Сырая лапша</title><ellipse cx="160" cy="208" rx="99" ry="12" fill="#4a3b28" opacity=".12"/><ellipse cx="160" cy="158" rx="132" ry="70" fill="#fff5dc" stroke="#dac99e" stroke-width="2"/><ellipse cx="160" cy="158" rx="119" ry="59" fill="none" stroke="#8da07a" stroke-width="2"/><path d="M92 84q-9 31 3 52t-2 49" fill="none" stroke="#e9be61" stroke-width="7" stroke-linecap="round"/><path d="M104 84q-9 31 3 52t-2 49" fill="none" stroke="#f7dc92" stroke-width="7" stroke-linecap="round"/><path d="M116 84q-9 31 3 52t-2 49" fill="none" stroke="#e9be61" stroke-width="7" stroke-linecap="round"/><path d="M128 84q-9 31 3 52t-2 49" fill="none" stroke="#f7dc92" stroke-width="7" stroke-linecap="round"/><path d="M140 84q-9 31 3 52t-2 49" fill="none" stroke="#e9be61" stroke-width="7" stroke-linecap="round"/><path d="M152 84q-9 31 3 52t-2 49" fill="none" stroke="#f7dc92" stroke-width="7" stroke-linecap="round"/><path d="M164 84q-9 31 3 52t-2 49" fill="none" stroke="#e9be61" stroke-width="7" stroke-linecap="round"/><path d="M176 84q-9 31 3 52t-2 49" fill="none" stroke="#f7dc92" stroke-width="7" stroke-linecap="round"/><path d="M188 84q-9 31 3 52t-2 49" fill="none" stroke="#e9be61" stroke-width="7" stroke-linecap="round"/><path d="M200 84q-9 31 3 52t-2 49" fill="none" stroke="#f7dc92" stroke-width="7" stroke-linecap="round"/><path d="M212 84q-9 31 3 52t-2 49" fill="none" stroke="#e9be61" stroke-width="7" stroke-linecap="round"/><path d="M224 84q-9 31 3 52t-2 49" fill="none" stroke="#f7dc92" stroke-width="7" stroke-linecap="round"/></svg>